<?xml version="1.0" encoding="utf-8"?>
<!-- Generator: Adobe Illustrator 23.0.0, SVG Export Plug-In . SVG Version: 6.00 Build 0)  -->
<svg version="1.1" id="Layer_1" xmlns="http://www.w3.org/2000/svg" xmlns:xlink="http://www.w3.org/1999/xlink" x="0px" y="0px"
	 viewBox="0 0 16 16" style="enable-background:new 0 0 16 16;" xml:space="preserve">
<style type="text/css">
	.st0{fill:#FFFFFF;}
	.st1{fill:#309986;}
</style>
<path class="st0" d="M14,0H2C0.9,0,0,0.9,0,2v12c0,1.1,0.9,2,2,2h12c1.1,0,2-0.9,2-2V2C16,0.9,15.1,0,14,0z M11.3,7.8
	c-0.2,0.2-0.5,0.2-0.7,0L8.5,5.7v5.8C8.5,11.8,8.3,12,8,12s-0.5-0.2-0.5-0.5V5.7L5.3,7.8C5.2,8,4.8,8,4.7,7.8
	c-0.2-0.2-0.2-0.5,0-0.7l3-3C7.8,4,8.2,4,8.3,4.2l3,3C11.5,7.3,11.5,7.7,11.3,7.8z"/>
<path class="st0" d="M11.3,7.8c-0.2,0.2-0.5,0.2-0.7,0L8.5,5.7v5.8C8.5,11.8,8.3,12,8,12s-0.5-0.2-0.5-0.5V5.7L5.3,7.8
	C5.2,8,4.8,8,4.7,7.8c-0.2-0.2-0.2-0.5,0-0.7l3-3C7.8,4,8.2,4,8.3,4.2l3,3C11.5,7.3,11.5,7.7,11.3,7.8z"/>
<path class="st1" d="M11.3,7.8c-0.2,0.2-0.5,0.2-0.7,0L8.5,5.7v5.8C8.5,11.8,8.3,12,8,12s-0.5-0.2-0.5-0.5V5.7L5.3,7.8
	C5.2,8,4.8,8,4.7,7.8c-0.2-0.2-0.2-0.5,0-0.7l3-3C7.8,4,8.2,4,8.3,4.2l3,3C11.5,7.3,11.5,7.7,11.3,7.8z"/>
</svg>
