<svg width="20" height="21" viewBox="0 0 20 21" fill="none" xmlns="http://www.w3.org/2000/svg">
<path d="M17 2.75226H15V1.75226C15 1.48704 14.8946 1.23269 14.7071 1.04515C14.5196 0.857615 14.2652 0.752258 14 0.752258C13.7348 0.752258 13.4804 0.857615 13.2929 1.04515C13.1054 1.23269 13 1.48704 13 1.75226V2.75226H7V1.75226C7 1.48704 6.89464 1.23269 6.70711 1.04515C6.51957 0.857615 6.26522 0.752258 6 0.752258C5.73478 0.752258 5.48043 0.857615 5.29289 1.04515C5.10536 1.23269 5 1.48704 5 1.75226V2.75226H3C2.20435 2.75226 1.44129 3.06833 0.87868 3.63094C0.316071 4.19355 0 4.95661 0 5.75226V17.7523C0 18.5479 0.316071 19.311 0.87868 19.8736C1.44129 20.4362 2.20435 20.7523 3 20.7523H17C17.7956 20.7523 18.5587 20.4362 19.1213 19.8736C19.6839 19.311 20 18.5479 20 17.7523V5.75226C20 4.95661 19.6839 4.19355 19.1213 3.63094C18.5587 3.06833 17.7956 2.75226 17 2.75226ZM18 17.7523C18 18.0175 17.8946 18.2718 17.7071 18.4594C17.5196 18.6469 17.2652 18.7523 17 18.7523H3C2.73478 18.7523 2.48043 18.6469 2.29289 18.4594C2.10536 18.2718 2 18.0175 2 17.7523V10.7523H18V17.7523ZM18 8.75226H2V5.75226C2 5.48704 2.10536 5.23269 2.29289 5.04515C2.48043 4.85762 2.73478 4.75226 3 4.75226H5V5.75226C5 6.01747 5.10536 6.27183 5.29289 6.45936C5.48043 6.6469 5.73478 6.75226 6 6.75226C6.26522 6.75226 6.51957 6.6469 6.70711 6.45936C6.89464 6.27183 7 6.01747 7 5.75226V4.75226H13V5.75226C13 6.01747 13.1054 6.27183 13.2929 6.45936C13.4804 6.6469 13.7348 6.75226 14 6.75226C14.2652 6.75226 14.5196 6.6469 14.7071 6.45936C14.8946 6.27183 15 6.01747 15 5.75226V4.75226H17C17.2652 4.75226 17.5196 4.85762 17.7071 5.04515C17.8946 5.23269 18 5.48704 18 5.75226V8.75226Z" fill="white"/>
</svg>
