<svg width="21" height="21" viewBox="0 0 21 21" fill="none" xmlns="http://www.w3.org/2000/svg">
<path d="M1.08072 15.8969L4.16683 10.5L1.08072 5.10313C0.551092 4.18646 0.520537 3.25238 0.989055 2.30088C1.45757 1.35029 2.18072 0.875 3.1585 0.875H13.3335C13.7409 0.875 14.1231 0.978125 14.4799 1.18437C14.836 1.39062 15.1261 1.67708 15.3502 2.04375L19.6585 8.91875C19.9437 9.4 20.0863 9.92708 20.0863 10.5C20.0863 11.0729 19.9437 11.6 19.6585 12.0813L15.3502 18.9563C15.1261 19.3229 14.836 19.6094 14.4799 19.8156C14.1231 20.0219 13.7409 20.125 13.3335 20.125H3.1585C2.18072 20.125 1.45757 19.6493 0.989055 18.6978C0.520537 17.7472 0.551092 16.8135 1.08072 15.8969ZM3.12794 17.375H13.3335L17.6724 10.5L13.3335 3.625H3.12794L7.10016 10.5L3.12794 17.375ZM7.10016 10.5L3.12794 3.625L7.10016 10.5L3.12794 17.375L7.10016 10.5Z" fill="#4F4F4F"/>
</svg>
