<svg width="23" height="23" viewBox="0 0 23 23" fill="none" xmlns="http://www.w3.org/2000/svg">
<path d="M11.5 11.5C12.9421 11.5 14.3252 10.9271 15.3449 9.90739C16.3646 8.88766 16.9375 7.50461 16.9375 6.0625C16.9375 4.62039 16.3646 3.23734 15.3449 2.21761C14.3252 1.19788 12.9421 0.625 11.5 0.625C10.0579 0.625 8.67484 1.19788 7.65511 2.21761C6.63538 3.23734 6.0625 4.62039 6.0625 6.0625C6.0625 7.50461 6.63538 8.88766 7.65511 9.90739C8.67484 10.9271 10.0579 11.5 11.5 11.5ZM15.125 6.0625C15.125 7.02391 14.7431 7.94594 14.0633 8.62576C13.3834 9.30558 12.4614 9.6875 11.5 9.6875C10.5386 9.6875 9.61656 9.30558 8.93674 8.62576C8.25692 7.94594 7.875 7.02391 7.875 6.0625C7.875 5.10109 8.25692 4.17906 8.93674 3.49924C9.61656 2.81942 10.5386 2.4375 11.5 2.4375C12.4614 2.4375 13.3834 2.81942 14.0633 3.49924C14.7431 4.17906 15.125 5.10109 15.125 6.0625ZM22.375 20.5625C22.375 22.375 20.5625 22.375 20.5625 22.375H2.4375C2.4375 22.375 0.625 22.375 0.625 20.5625C0.625 18.75 2.4375 13.3125 11.5 13.3125C20.5625 13.3125 22.375 18.75 22.375 20.5625ZM20.5625 20.5553C20.5607 20.1094 20.2834 18.7681 19.0545 17.5392C17.8728 16.3575 15.6488 15.125 11.5 15.125C7.34938 15.125 5.12725 16.3575 3.9455 17.5392C2.71662 18.7681 2.44113 20.1094 2.4375 20.5553H20.5625Z" fill="#4F4F4F"/>
</svg>
