<svg width="84" height="83" viewBox="0 0 84 83" fill="none" xmlns="http://www.w3.org/2000/svg">
<path fill-rule="evenodd" clip-rule="evenodd" d="M71.3933 17.7331L66.0628 0.62915L60.7324 17.7331L50.4199 22.5995L60.7783 27.4863L66.0628 42.4511L71.3474 27.4863L81.7058 22.5995L71.3933 17.7331ZM64.5183 20.9758L66.0628 16.0209L67.6074 20.9781L71.0449 22.5995L67.6533 24.2004L66.0628 28.7012L64.4724 24.2004L61.0808 22.5995L64.5183 20.9781V20.9758Z" fill="#2D6258"/>
<path d="M30.542 23.0855L32.8337 14.0022L35.1253 23.0855L42.0003 25.3564L35.1253 27.6272L32.8337 36.7105L30.542 27.6272L23.667 25.3564L30.542 23.0855Z" fill="#2D6258"/>
<path fill-rule="evenodd" clip-rule="evenodd" d="M16.7917 77.0177V77.5763C16.7917 78.7809 16.3088 79.936 15.4492 80.7878C14.5897 81.6395 13.4239 82.118 12.2083 82.118H5.33333C4.11776 82.118 2.95197 81.6395 2.09243 80.7878C1.23289 79.936 0.75 78.7809 0.75 77.5763V52.6085C0.75 51.404 1.23289 50.2488 2.09243 49.3971C2.95197 48.5454 4.11776 48.0669 5.33333 48.0669H12.2083C13.2406 48.0664 14.2427 48.4113 15.0525 49.0455C15.8623 49.6798 16.4323 50.5664 16.6702 51.5617C19.7044 50.4785 23.2496 49.1886 24.3335 48.6981C25.2548 48.2826 26.3181 48.1418 27.2027 48.0896C28.1156 48.0457 29.0305 48.0616 29.9413 48.1373C30.9611 48.2178 31.9766 48.3451 32.9846 48.5188L33.0373 48.5278L33.0533 48.5301H33.0602L33.1015 48.5392L48.4327 51.9454L48.5267 51.9772L48.5519 51.9863L48.6573 52.0181C49.3187 52.2102 49.9868 52.3791 50.6602 52.5245C51.9779 52.8084 53.6394 53.074 55.1863 53.074C56.6163 53.074 58.0967 53.6031 58.885 55.0383C59.5633 56.2691 59.4052 57.6225 59.1531 58.5581C58.8346 59.7253 58.1792 60.9516 57.3473 61.9939C58.4702 61.5738 59.7008 61.0765 61.0208 60.5405L61.3027 60.427C65.0221 58.9124 69.4313 57.1184 73.3225 56.4826C77.7683 55.7536 81.0019 57.3523 82.4685 60.1886C83.7748 62.7137 83.4723 66.0269 81.506 68.0229C81.0133 68.5248 80.2617 69.0516 79.5077 69.5353C78.701 70.0553 77.7088 70.6389 76.6065 71.2611C74.0742 72.6663 71.5107 74.0155 68.9179 75.3078C63.4821 78.0396 57.785 80.6965 55.9746 81.3527C53.8754 82.1135 51.6204 82.1861 49.4548 82.0749C48.147 81.9944 46.8411 81.8846 45.5383 81.7456C44.5845 81.6477 43.6296 81.5607 42.6738 81.4844C38.2554 81.1529 34.8638 80.0833 31.7425 79.1001L31.3621 78.9797C28.1354 77.9669 25.1333 77.0654 21.1573 76.9064C20.2498 76.8701 18.4348 76.9382 16.7917 77.0154V77.0177ZM26.2333 52.8311C26.3823 52.7629 26.7719 52.6653 27.4663 52.6244C28.1171 52.5858 28.8596 52.6108 29.586 52.6653C30.4553 52.7346 31.3209 52.8429 32.1802 52.99H32.1871L47.2365 56.335L47.3396 56.3668C48.1137 56.5925 48.8956 56.791 49.684 56.9617C51.0246 57.2524 52.8235 57.5567 54.6546 57.6089C54.4911 58.046 54.2716 58.4604 54.0015 58.842C53.6348 59.3688 53.2337 59.7753 52.9038 60.0092C51.9504 60.6859 51.1804 60.9675 50.7129 61.0878C50.5537 61.131 50.3912 61.1614 50.2271 61.1787H50.1767L37.8887 61.0333L37.4533 65.5386L37.8613 63.3041L37.4533 65.5386L37.5748 65.5614L37.9254 65.6227L39.1996 65.8452C40.2698 66.0314 41.7388 66.2812 43.3383 66.5401C46.4871 67.0488 50.2821 67.6119 52.4363 67.7414C53.9258 67.8322 55.6583 67.378 57.2694 66.8444C58.9492 66.288 60.849 65.5182 62.7602 64.7416C66.695 63.1429 70.7031 61.5147 74.0696 60.9629C76.98 60.486 78.0181 61.5397 78.3894 62.2596C78.9233 63.2928 78.6346 64.4396 78.2244 64.8529C78.1258 64.955 77.766 65.2434 77.0144 65.7271C76.3131 66.1745 75.4079 66.7127 74.3446 67.3099C71.8748 68.68 69.3747 69.9959 66.8463 71.2566C61.3646 74.0111 55.9104 76.5386 54.3979 77.0881C53.1742 77.5332 51.6594 77.6399 49.6908 77.54C48.5312 77.4723 47.3735 77.3746 46.219 77.2471C45.1539 77.136 44.0874 77.0391 43.0198 76.9564C39.1423 76.6657 36.1952 75.737 33.035 74.7423L32.7485 74.6515C29.476 73.6228 25.9744 72.5532 21.3429 72.3693C20.3002 72.3284 18.444 72.392 16.7917 72.4692V56.344C20.0115 55.2018 24.7827 53.4873 26.2333 52.8311ZM32.6408 50.7646L33.0602 48.5324L32.6408 50.7646ZM12.2083 52.6063H5.33333V77.5741H12.2083V52.6085V52.6063Z" fill="#2D6258"/>
</svg>
